#!OML:ASF G:\ViconDB\ViconDB\414\test\team2\shane.ASF
:FULLY-SPECIFIED
:DEGREES
346
root 6.20689 16.1957 21.4293 -9.75382 0.0183176 -1.01044
lowerback 6.35324 3.75353 0.995916
upperback 4.21964 5.062 -2.82822
thorax 1.15001 2.60282 -3.72386
lowerneck -14.9245 -6.63614 -12.732
upperneck 16.2647 -9.26152 15.3759
head 8.89612 -3.75017 6.22163
rclavicle 4.87022e-015 -9.54166e-015
rhumerus -37.3707 14.7423 -99.8334
rradius 26.9595
rwrist 32.8394
rhand -24.934 -12.0684
rfingers 7.12502
rthumb 1.5753 -42.0423
lclavicle 4.87022e-015 -9.54166e-015
lhumerus -43.9211 -15.4834 92.741
lradius 22.058
lwrist -12.6818
lhand -38.8185 8.7987
lfingers 7.12502
lthumb -11.8287 38.4446
rfemur 9.70391 -10.6581 7.18458
rtibia 66.9078
rfoot -3.84958 -7.09956
rtoes -9.59902
lfemur -11.7663 10.9441 -15.3809
ltibia 46.1628
lfoot -27.9664 -12.0735
ltoes -3.34185
347
root 6.24911 16.1742 21.6006 -10.2521 -0.0327453 -1.23494
lowerback 6.62624 3.52163 1.26665
upperback 4.45773 4.76899 -2.63006
thorax 1.22939 2.46285 -3.6674
lowerneck -15.0275 -6.42024 -12.5046
upperneck 16.4383 -8.93518 14.9805
head 8.88846 -3.61172 6.09029
rclavicle -1.59525e-014 1.90833e-014
rhumerus -37.9085 15.2593 -99.8284
rradius 26.9607
rwrist 32.9909
rhand -25.4216 -12.1011
rfingers 7.12502
rthumb 1.10433 -42.078
lclavicle -1.59525e-014 1.90833e-014
lhumerus -43.3622 -16.5948 93.4187
lradius 22.1707
lwrist -13.116
lhand -39.451 9.31387
lfingers 7.12502
lthumb -12.4385 38.9238
rfemur 8.3639 -10.6792 7.38763
rtibia 68.5664
rfoot -5.32265 -6.6698
rtoes -9.32844
lfemur -10.6174 10.5594 -15.196
ltibia 46.3462
lfoot -28.6786 -11.3128
ltoes -3.70443
348
root 6.28396 16.1516 21.7687 -10.5829 -0.121184 -0.874306
lowerback 6.69847 3.37535 0.751019
upperback 4.64066 4.54905 -2.53512
thorax 1.31279 2.34131 -3.27024
lowerneck -15.0833 -6.2585 -12.3176
upperneck 16.6458 -8.67879 14.5577
head 8.89712 -3.51327 5.94728
rclavicle -1.72446e-014 -8.74653e-015
rhumerus -38.5063 15.9063 -99.9029
rradius 27.0158
rwrist 33.2925
rhand -25.7292 -11.9894
rfingers 7.12502
rthumb 0.807312 -41.9676
lclavicle -1.72446e-014 -8.74653e-015
lhumerus -42.7145 -17.6318 94.0151
lradius 22.1883
lwrist -13.1219
lhand -39.912 9.46518
lfingers 7.12502
lthumb -12.883 39.0476
rfemur 6.90982 -10.8695 6.97918
rtibia 69.9482
rfoot -6.71995 -6.18346
rtoes -9.77127
lfemur -9.62959 10.1138 -15.6896
ltibia 46.509
lfoot -29.2484 -10.5079
ltoes -3.88169
349
root 6.31998 16.1217 21.9312 -10.9094 0.0305657 -0.863252
lowerback 6.80199 3.06108 0.559725
upperback 4.86353 4.1218 -2.27462
thorax 1.42493 2.12067 -2.87346
lowerneck -15.309 -6.03863 -12.2657
upperneck 16.7868 -8.2782 14.1201
head 8.90052 -3.35201 5.83896
rclavicle -2.5842e-015 -2.38542e-015
rhumerus -39.2697 17.2068 -100.097
rradius 27.3784
rwrist 32.6232
rhand -25.9675 -12.0925
rfingers 7.12502
rthumb 0.577106 -42.0715
lclavicle -2.5842e-015 -2.38542e-015
lhumerus -41.6567 -17.8013 94.2411
lradius 21.7647
lwrist -14.1379
lhand -40.1637 9.21892
lfingers 7.12502
lthumb -13.1256 38.7858
rfemur 5.61944 -11.3042 6.95079
rtibia 71.0489
rfoot -8.44315 -5.68976
rtoes -10.7602
lfemur -8.68584 9.5842 -15.8772
ltibia 46.6134
lfoot -29.9114 -9.59753
ltoes -4.23002
350
root 6.36078 16.0983 22.0913 -11.2489 0.0376591 -0.754993
lowerback 6.91867 2.80501 0.355872
upperback 5.10817 3.77136 -2.02939
thorax 1.5636 1.93807 -2.48883
lowerneck -15.3027 -5.86192 -12.8656
upperneck 16.5536 -7.9528 14.5615
head 8.81854 -3.20012 6.14224
rclavicle 2.74323e-014 -1.03368e-014
rhumerus -39.877 18.3052 -100.018
rradius 27.5306
rwrist 32.922
rhand -26.5694 -12.0533
rfingers 7.12502
rthumb -0.00415526 -42.033
lclavicle 2.74323e-014 -1.03368e-014
lhumerus -40.6594 -18.5218 94.8097
lradius 21.3638
lwrist -14.3533
lhand -40.4662 9.39498
lfingers 7.12502
lthumb -13.4172 38.9429
rfemur 4.26648 -11.4888 6.87294
rtibia 71.9283
rfoot -10.216 -5.19599
rtoes -11.0834
lfemur -7.64 9.02001 -16.1902
ltibia 46.6416
lfoot -30.5385 -8.699
ltoes -4.39025
351
root 6.3922 16.0823 22.2504 -11.5377 0.0757456 -0.85806
lowerback 7.06816 2.5485 0.26909
upperback 5.24975 3.42368 -1.76177
thorax 1.58876 1.75744 -2.15097
lowerneck -15.3466 -5.74914 -12.8723
upperneck 16.4956 -7.72908 14.3167
head 8.76098 -3.11703 6.08407
rclavicle -2.4202e-014 -1.51076e-014
rhumerus -40.6209 18.8822 -99.9368
rradius 27.8937
rwrist 33.0096
rhand -26.6298 -11.6896
rfingers 7.12502
rthumb -0.0625613 -41.6693
lclavicle -2.4202e-014 -1.51076e-014
lhumerus -39.5189 -18.8908 95.04
lradius 20.7488
lwrist -14.3646
lhand -40.5888 9.3892
lfingers 7.12502
lthumb -13.5353 38.9293
rfemur 2.85686 -11.8194 7.14952
rtibia 72.5693
rfoot -11.4714 -4.73216
rtoes -11.8962
lfemur -6.63064 8.51321 -16.238
ltibia 46.5818
lfoot -31.1875 -7.8828
ltoes -4.81885
